<svg width="338" height="71" viewBox="0 0 338 71" fill="none" xmlns="http://www.w3.org/2000/svg">
<path d="M169 0.5C215.644 0.5 257.858 4.47149 288.398 10.8867C303.673 14.0952 316 17.9101 324.497 22.1299C328.746 24.2401 332.011 26.4394 334.208 28.6943C336.403 30.9476 337.5 33.2221 337.5 35.5C337.5 37.7779 336.403 40.0524 334.208 42.3057C332.011 44.5606 328.746 46.7599 324.497 48.8701C316 53.0899 303.673 56.9048 288.398 60.1133C257.858 66.5285 215.644 70.5 169 70.5C122.356 70.5 80.1417 66.5285 49.6016 60.1133C34.3275 56.9048 21.9997 53.0899 13.5029 48.8701C9.25392 46.7599 5.98872 44.5606 3.79199 42.3057C1.59696 40.0524 0.5 37.7779 0.5 35.5C0.5 33.2221 1.59696 30.9476 3.79199 28.6943C5.98872 26.4394 9.25392 24.2401 13.5029 22.1299C21.9997 17.9101 34.3275 14.0952 49.6016 10.8867C80.1417 4.47149 122.356 0.5 169 0.5Z" stroke="black"/>
</svg>
