<svg width="289" height="395" viewBox="0 0 289 395" fill="none" xmlns="http://www.w3.org/2000/svg">
<path d="M182.343 66.6289L182.511 67.5342L183.179 66.9004L230.312 22.1758L202.341 80.8232L201.944 81.6543L202.857 81.5342L267.277 73.0547L210.177 104.061L209.367 104.5L210.177 104.939L267.277 135.944L202.857 127.466L201.944 127.346L202.341 128.177L230.312 186.823L183.179 142.1L182.511 141.466L182.343 142.371L170.5 206.259L158.657 142.371L158.489 141.466L157.821 142.1L110.688 186.823L138.659 128.177L139.056 127.346L138.143 127.466L73.7217 135.944L130.823 104.939L131.633 104.5L130.823 104.061L73.7217 73.0547L138.143 81.5342L139.056 81.6543L138.659 80.8232L110.688 22.1758L157.821 66.9004L158.489 67.5342L158.657 66.6289L170.5 2.74023L182.343 66.6289Z" stroke="black"/>
<path d="M207 177L224.789 222.06L271.11 207.874L246.972 249.877L286.944 277.247L239.055 284.563L242.578 332.879L207 300L171.422 332.879L174.945 284.563L127.056 277.247L167.028 249.877L142.89 207.874L189.211 222.06L207 177Z" fill="#D9D9D9"/>
<path d="M42.1945 306.102L65.1343 264L88.2584 306.102L130.269 329.134L88.2584 352.166L65.1343 394.269L42.1945 352.166L0 329.134L42.1945 306.102Z" fill="#B9FF66"/>
<circle cx="82.5" cy="186.5" r="62" fill="black" stroke="black"/>
<ellipse cx="62" cy="173" rx="10" ry="20" fill="white"/>
<ellipse cx="103" cy="173" rx="10" ry="20" fill="white"/>
</svg>
